<svg xmlns="http://www.w3.org/2000/svg" width="64" height="64" fill="none" viewBox="0 0 64 64">
  <g clip-path="url(#clip0_302_1775)">
    <path fill="#FFE773" d="M64 7.586v55.31c0 .61-.494 1.104-1.103 1.104H39.035c-.61 0-1.104-.494-1.104-1.103V7.587c0-.61.494-1.104 1.104-1.104h23.862c.609 0 1.103.494 1.103 1.103z"/>
    <path fill="#FFF0A6" d="M64 7.586v.552c0 .61-.494 1.103-1.103 1.103H43.172c-.609 0-1.103.494-1.103 1.104V64h-3.035c-.609 0-1.103-.494-1.103-1.103V7.587c0-.61.494-1.104 1.104-1.104h23.862c.609 0 1.103.494 1.103 1.103z"/>
    <path fill="#FF6D7A" d="M51.31 21.183v41.714c0 .609-.494 1.103-1.103 1.103H29.93c-.61 0-1.103-.494-1.103-1.103v-47.7c0-.738.709-1.268 1.416-1.059l20.276 5.987c.469.139.79.57.79 1.058z"/>
    <path fill="#FADA86" d="M58.207 14.896H48.44a1.103 1.103 0 110-2.206h9.767a1.103 1.103 0 110 2.207z"/>
    <path fill="#FF8C95" d="M51.31 21.183v.615c0 .737-.709 1.267-1.416 1.058l-15.512-4.58a1.104 1.104 0 00-1.416 1.058V64H29.93c-.61 0-1.103-.494-1.103-1.103v-47.7c0-.737.708-1.267 1.416-1.059l20.276 5.987c.469.138.79.569.79 1.058z"/>
    <path fill="#FADA86" d="M58.207 25.931h-2.07a1.103 1.103 0 110-2.207h2.07a1.104 1.104 0 010 2.207zM58.207 35.586h-2.07a1.104 1.104 0 010-2.207h2.07a1.104 1.104 0 010 2.207zM58.207 45.241h-2.07a1.104 1.104 0 010-2.206h2.07a1.104 1.104 0 010 2.206zM58.207 54.897h-2.07a1.103 1.103 0 110-2.207h2.07a1.103 1.103 0 110 2.207z"/>
    <path fill="#FE4F60" d="M45.241 29.38H42.76a1.103 1.103 0 010-2.208h2.482a1.104 1.104 0 010 2.207z"/>
    <path fill="#CBE3FA" d="M42.483 40h-7.31V24.552c0-.61-.495-1.104-1.104-1.104H9.517c-.61 0-1.103.494-1.103 1.104V40h-7.31C.493 40 0 40.494 0 41.103v21.794C0 63.506.494 64 1.103 64h41.38c.61 0 1.103-.494 1.103-1.103V41.103c0-.609-.494-1.103-1.103-1.103z"/>
    <path fill="#B5D5F5" d="M21.793 49.241c-.61 0-1.103-.494-1.103-1.103V30.207a1.103 1.103 0 012.207 0v17.93c0 .61-.494 1.104-1.104 1.104zM14.896 48c-.609 0-1.103-.494-1.103-1.103V31.448a1.104 1.104 0 012.207 0v15.449c0 .609-.494 1.103-1.104 1.103zM28.69 48c-.61 0-1.104-.494-1.104-1.103V31.448a1.104 1.104 0 012.207 0v15.449c0 .609-.494 1.103-1.103 1.103z"/>
    <path fill="#42434D" d="M28.138 54.897V64h-12.69v-9.103c0-.61.494-1.104 1.104-1.104h10.482c.61 0 1.104.494 1.104 1.104z"/>
    <path fill="#B5D5F5" d="M35.172 40v24h1.656c.609 0 1.103-.494 1.103-1.103V41.103c0-.609-.494-1.103-1.103-1.103h-1.656z"/>
    <path fill="#EEF7FF" d="M8.414 40v1.38H3.862c-.61 0-1.103.493-1.103 1.103v20.414c0 .609-.494 1.103-1.104 1.103h-.552C.494 64 0 63.506 0 62.897V41.103C0 40.494.494 40 1.103 40h7.31zM35.172 24.552v.551c0 .61-.494 1.104-1.103 1.104H13.655c-.61 0-1.103.494-1.103 1.103V64H8.414V24.552c0-.61.494-1.104 1.103-1.104H34.07c.61 0 1.103.494 1.103 1.104z"/>
    <path fill="#B5D5F5" d="M8.414 40v24H6.759c-.61 0-1.104-.494-1.104-1.103V41.103c0-.609.494-1.103 1.104-1.103h1.655z"/>
  </g>
  <defs>
    <clipPath id="clip0_302_1775">
      <path fill="#fff" d="M0 0h64v64H0z"/>
    </clipPath>
  </defs>
</svg>
